<svg xmlns="http://www.w3.org/2000/svg" viewBox="0 0 500 350">
  <rect width="500" height="350" fill="#f8f9fa"/>
  <text x="250" y="30" text-anchor="middle" font-size="16" font-weight="bold" fill="#333">Smart Memory 信息流</text>
  
  <rect x="175" y="50" width="150" height="35" rx="6" fill="#4CAF50"/>
  <text x="250" y="73" text-anchor="middle" font-size="13" fill="white">新任务</text>
  
  <line x1="250" y1="85" x2="250" y2="105" stroke="#666" stroke-width="2" marker-end="url(#arrow)"/>
  
  <rect x="175" y="105" width="150" height="35" rx="6" fill="#2196F3"/>
  <text x="250" y="128" text-anchor="middle" font-size="13" fill="white">TODO.md</text>
  
  <line x1="250" y1="140" x2="250" y2="160" stroke="#666" stroke-width="2" marker-end="url(#arrow)"/>
  
  <rect x="175" y="160" width="150" height="35" rx="6" fill="#FF9800"/>
  <text x="250" y="183" text-anchor="middle" font-size="13" fill="white">ACTIVE_CONTEXT.md</text>
  
  <line x1="250" y1="195" x2="250" y2="215" stroke="#666" stroke-width="2" marker-end="url(#arrow)"/>
  
  <rect x="175" y="215" width="150" height="35" rx="6" fill="#9C27B0"/>
  <text x="250" y="238" text-anchor="middle" font-size="13" fill="white">memory/</text>
  
  <line x1="250" y1="250" x2="250" y2="270" stroke="#666" stroke-width="2"/>
  <line x1="250" y1="270" x2="200" y2="290" stroke="#666" stroke-width="2" marker-end="url(#arrow)"/>
  <line x1="250" y1="270" x2="300" y2="290" stroke="#666" stroke-width="2" marker-end="url(#arrow)"/>
  
  <rect x="120" y="290" width="100" height="40" rx="6" fill="#F44336"/>
  <text x="170" y="310" text-anchor="middle" font-size="11" fill="white">MEMORY.md</text>
  <text x="170" y="325" text-anchor="middle" font-size="10" fill="#666">长期</text>
  
  <rect x="280" y="290" width="100" height="40" rx="6" fill="#00BCD4"/>
  <text x="330" y="310" text-anchor="middle" font-size="11" fill="white">INDEX.md</text>
  <text x="330" y="325" text-anchor="middle" font-size="10" fill="#666">每天 2AM</text>
  
  <defs>
    <marker id="arrow" markerWidth="8" markerHeight="8" refX="7" refY="4" orient="auto">
      <path d="M0,0 L0,8 L8,4 z" fill="#666"/>
    </marker>
  </defs>
</svg>
